<svg xmlns="http://www.w3.org/2000/svg" viewBox="0 0 162.95 101.39"><title>behance-black</title><g id="Layer_2" data-name="Layer 2"><g id="Capa_1" data-name="Capa 1"><path id="Behance" d="M147.16,14.35H106.33V4.21h40.83V14.35Zm-68,41.59A26.83,26.83,0,0,1,83.1,70.79,29.61,29.61,0,0,1,78.59,87,27.94,27.94,0,0,1,60,100a70.83,70.83,0,0,1-14.32,1.37H0V0H49Q67.48.3,75.23,10.8a25.81,25.81,0,0,1,4.63,15.48c0,6.2-1.55,11.16-4.68,14.93A24.07,24.07,0,0,1,67.46,47,22.51,22.51,0,0,1,79.15,55.94ZM23.38,40H44.84c4.41,0,8-.83,10.72-2.51s4.11-4.65,4.11-8.91c0-4.72-1.81-7.85-5.45-9.36a38.51,38.51,0,0,0-12-1.58H23.38ZM61.74,69.34c0-5.27-2.16-8.91-6.45-10.86-2.41-1.11-5.8-1.68-10.14-1.72H23.38v27H44.81c4.4,0,7.81-.58,10.27-1.78C59.51,79.79,61.74,75.59,61.74,69.34ZM162.31,52.85a96,96,0,0,1,.62,14.42H110.05q.45,11,7.59,15.32a19.17,19.17,0,0,0,10.47,2.73c4.32,0,7.83-1.09,10.54-3.34a15.7,15.7,0,0,0,3.9-5h19.38c-.51,4.31-2.84,8.68-7,13.13q-9.75,10.59-27.32,10.6A39.62,39.62,0,0,1,102,91.79q-11.06-9-11.08-29.09,0-18.9,10-29t26-10.07A41.41,41.41,0,0,1,144,27.07a29.45,29.45,0,0,1,12.54,10.75A36,36,0,0,1,162.31,52.85Zm-19.08,1.89c-.36-5.05-2-8.87-5.08-11.48a16.5,16.5,0,0,0-11.25-3.93c-4.88,0-8.65,1.4-11.33,4.16S111.2,50,110.51,54.74Z"/></g></g></svg>